PathFileType	4	(X/Y/Z)	/Users/rkoike/Documents/python/sports2d/webcam_20251024_144952/webcam_20251024_144952_px_person00.trc
DataRate	CameraRate	NumFrames	NumMarkers	Units	OrigDataRate	OrigDataStartFrame	OrigNumFrames
30	30	14	22	m	30	841	962
Frame#	Time	Hip			RHip			RKnee			RAnkle			RBigToe			RSmallToe			RHeel			LHip			LKnee			LAnkle			LBigToe			LSmallToe			LHeel			Neck			Head			Nose			RShoulder			RElbow			RWrist			LShoulder			LElbow			LWrist			
		X1	Y1	Z1	X2	Y2	Z2	X3	Y3	Z3	X4	Y4	Z4	X5	Y5	Z5	X6	Y6	Z6	X7	Y7	Z7	X8	Y8	Z8	X9	Y9	Z9	X10	Y10	Z10	X11	Y11	Z11	X12	Y12	Z12	X13	Y13	Z13	X14	Y14	Z14	X15	Y15	Z15	X16	Y16	Z16	X17	Y17	Z17	X18	Y18	Z18	X19	Y19	Z19	X20	Y20	Z20	X21	Y21	Z21	X22	Y22	Z22
841	28.06250433576136	491.2956909494719	709.5848905866978	0.0	406.9648559444677	707.4168981639481	0.0	342.6186160069876	693.0854022519665	0.0	386.54579915267595	689.5651166616711	0.0			0.0			0.0			0.0	583.9108324368912	707.5326307347925	0.0	700.8902643215424	697.3869480447329	0.0	466.7896821210936	686.6431493999452	0.0	513.93505859375	710.3623046875	0.0	734.6243489583334	698.3541603088379	0.0			0.0	522.5305300199811	380.7252813533908	0.0	518.0691797864001	175.2952271418497	0.0	507.0211979447753	279.59533183458996	0.0	380.5515036152772	445.94202615365936	0.0	321.65681574247924	667.3627294017984	0.0	303.1832110693386	716.9310467829514	0.0	678.2837567349954	460.7805654172192	0.0	729.5634153960963	692.6890103438467	0.0	721.7940358075037	710.5576937062077	0.0
842	28.095872355185573	495.23247571745515	710.7000157409865	0.0	410.21152858317856	708.1977729359404	0.0	341.0572133568399	694.2097591273022	0.0	386.54579915267595	689.5651166616711	0.0			0.0			0.0			0.0	586.9306574759117	708.583509847394	0.0	716.3925782415934	698.3906546184372	0.0	466.7896821210936	686.6431493999452	0.0	513.93505859375	710.3623046875	0.0	734.6243489583334	698.3541603088379	0.0			0.0	533.9998945721348	377.5150260107643	0.0	529.9170620583127	169.62031258673645	0.0	519.311121951124	276.5656740949637	0.0	385.8012886693826	442.08797063522917	0.0	320.10020793217933	665.0677265347142	0.0	307.8246844913537	718.2889214994879	0.0	691.037196509843	462.1629566736937	0.0	743.6064222800132	690.170649305502	0.0	734.2125796730679	713.8828470166644	0.0
843	28.129240374609783	498.84117347890805	710.4952799165469	0.0	413.1050644566178	707.6423863812689	0.0	337.0290639146336	697.7974656089407	0.0	386.54579915267595	689.5651166616711	0.0			0.0			0.0			0.0	589.3447180608049	707.7377578675851	0.0	722.5356798023319	698.872816475876	0.0	466.7896821210936	686.6431493999452	0.0	513.93505859375	710.3623046875	0.0	734.6243489583334	698.3541603088379	0.0			0.0	539.4627664158029	376.87587590771716	0.0	537.9842016994301	165.63682872715017	0.0	525.9187964704179	274.68752494925457	0.0	385.74000745353726	441.2168319712711	0.0	316.35526418850066	661.0514038300214	0.0	306.8039128615042	717.681044221701	0.0	697.4921909864955	463.78390609850584	0.0	753.438293326131	686.0074902105475	0.0	739.2844766876102	715.6532809393799	0.0
844	28.162608394033995	500.6655684841534	709.632671815689	0.0	412.8571349287019	705.716277460323	0.0	329.0337847791053	704.9344187384156	0.0	386.54579915267595	689.5651166616711	0.0			0.0			0.0			0.0	592.9453554690089	705.8659915641753	0.0	715.0392032260042	698.6054529045498	0.0	466.7896821210936	686.6431493999452	0.0	513.93505859375	710.3623046875	0.0	734.6243489583334	698.3541603088379	0.0			0.0	538.4816038045975	379.31127236470144	0.0	541.8318918443217	162.8127581793883	0.0	525.9769304608075	273.4679515920841	0.0	381.62459784853434	442.538207270309	0.0	309.5693040701736	657.633352314488	0.0	304.7930899531892	715.1175994587927	0.0	698.606049224341	464.80536498023923	0.0	760.5801555165887	681.8071063479065	0.0	740.3907785493013	713.3961290228858	0.0
845	28.195976413458204	498.19138650350817	711.8535358481715	0.0	407.4013500583738	706.9665541697769	0.0	317.9123895109963	714.4398014875712	0.0	386.54579915267595	689.5651166616711	0.0			0.0			0.0			0.0	593.7066466696299	708.0200472740005	0.0	698.0488314189275	697.8283504470338	0.0	466.7896821210936	686.6431493999452	0.0	513.93505859375	710.3623046875	0.0	734.6243489583334	698.3541603088379	0.0			0.0	533.413753577978	381.2161275139451	0.0	540.8966540638195	159.32045751516938	0.0	520.6565244951332	271.85590833267645	0.0	374.5346861259811	444.0924254977643	0.0	300.24786403158333	656.9579981173518	0.0	303.5877240343332	714.3557967731972	0.0	697.8221214167177	464.62604682544077	0.0	766.3514461357715	676.5362727361228	0.0	739.2706345480609	713.4218991914872	0.0
846	28.229344432882417	493.1671448010999	716.0361148720972	0.0	400.0426000971341	711.3504548801699	0.0	305.77029926701067	724.3711776522873	0.0	386.54579915267595	689.5651166616711	0.0			0.0			0.0			0.0	590.3439677275118	713.3677628752483	0.0	678.789531185373	696.9333716309638	0.0	466.7896821210936	686.6431493999452	0.0	513.93505859375	710.3623046875	0.0	734.6243489583334	698.3541603088379	0.0			0.0	525.7723157385294	380.6974510079581	0.0	534.7462162322971	154.9109932445647	0.0	511.34371936676126	269.7715868199913	0.0	364.63226525542984	445.23249405741285	0.0	289.03987745360917	659.4140081599114	0.0	298.05079002590395	715.7740702236024	0.0	695.7876001066649	464.164022417726	0.0	770.6657281666915	669.7634066627805	0.0	737.3395587305264	718.5983745878757	0.0
847	28.262712452306626	487.7054387532841	716.1107700148615	0.0	392.89175353853955	712.3078652698464	0.0	294.3391075249062	734.2855166306759	0.0	386.54579915267595	689.5651166616711	0.0			0.0			0.0			0.0	585.8848979973965	714.4819061975813	0.0	660.6211439121294	696.0981857301867	0.0	466.7896821210936	686.6431493999452	0.0	513.93505859375	710.3623046875	0.0	734.6243489583334	698.3541603088379	0.0			0.0	514.3938559932062	380.406457005862	0.0	523.2901074379187	151.16921571784317	0.0	498.23855786444926	267.69383100761894	0.0	350.4110622880384	448.167330627661	0.0	274.4646174034928	663.9202306156329	0.0	282.89881592421705	715.9104080561198	0.0	689.6814589912669	464.39973762590193	0.0	773.6038050891214	661.5190995662966	0.0	737.5128918557871	723.1078535188113	0.0
848	28.29608047173084	480.1171281039697	711.3710389260615	0.0	382.9672147821602	707.8058825943449	0.0	285.23472710187696	745.3224532369924	0.0	386.54579915267595	689.5651166616711	0.0			0.0			0.0			0.0	580.390271787018	710.1197373429441	0.0	643.4104005099159	695.3137231677288	0.0	466.7896821210936	686.6431493999452	0.0	513.93505859375	710.3623046875	0.0	734.6243489583334	698.3541603088379	0.0			0.0	498.5159491356267	382.1023220478605	0.0	507.41721396721107	148.2666317662678	0.0	481.361284447754	265.25062440868345	0.0	330.73572131169897	454.0503636378867	0.0	255.53349577989934	668.9608990148148	0.0	259.1264744994827	714.6875269255405	0.0	678.0274567012788	463.99262188687	0.0	775.0554104818951	650.0964528843324	0.0	741.0485804164282	723.8559340665147	0.0
849	28.32944849115505	468.7635923629593	711.01407074836	0.0	368.5766462412357	706.2116662615956	0.0	277.9385133504812	757.5878043298616	0.0	386.54579915267595	689.5651166616711	0.0			0.0			0.0			0.0	570.1456893495752	709.5348433387364	0.0	626.188970203402	694.5287014397061	0.0	466.7896821210936	686.6431493999452	0.0	513.93505859375	710.3623046875	0.0	734.6243489583334	698.3541603088379	0.0			0.0	481.11165296937344	382.07494376809814	0.0	489.0610136988722	143.94544493950244	0.0	462.78029110951917	261.5630783416265	0.0	309.0741914193531	458.81096728179335	0.0	235.4912600493051	673.0827740262043	0.0	231.83588121248278	717.2389445372555	0.0	663.4416969953153	460.5763707211253	0.0	773.5248813588828	636.0428623466331	0.0	744.9241636673145	724.7034317891458	0.0
850	28.36281651057926	455.18954759567765	719.1702526414402	0.0	351.882699107803	712.2925399285979	0.0	263.3867637137827	765.4252253562502	0.0	386.54579915267595	689.5651166616711	0.0			0.0			0.0			0.0	555.4783514282035	716.5126345745657	0.0	607.9282923505633	693.6908856142778	0.0	466.7896821210936	686.6431493999452	0.0	513.93505859375	710.3623046875	0.0	734.6243489583334	698.3541603088379	0.0			0.0	465.81576260687035	378.15262106474114	0.0	470.46323073560967	137.331258503056	0.0	444.8835759719706	257.06755333070885	0.0	290.8282798186799	458.4895011750136	0.0	218.10741710168278	676.4347343881578	0.0	206.63905884345692	724.7391789610454	0.0	648.8502083978127	455.2760781731861	0.0	768.8687302329192	625.5230467016158	0.0	743.6700991201269	726.81798360611	0.0
851	28.39618453000347	440.6528159219155	724.9189467000625	0.0	334.9491569487579	717.0968985380317	0.0	226.15273150026977	758.4502331217768	0.0	386.54579915267595	689.5651166616711	0.0			0.0			0.0			0.0	542.1319154527342	721.1840818294119	0.0	588.456672397705	692.7919588977983	0.0	466.7896821210936	686.6431493999452	0.0	513.93505859375	710.3623046875	0.0	734.6243489583334	698.3541603088379	0.0			0.0	451.763577505659	375.7478875378525	0.0	453.6393967523422	130.9825580513248	0.0	427.5647362440698	253.58525635856125	0.0	275.9031864392609	456.06657114139335	0.0	202.61844379061694	680.0559756730551	0.0	187.80787550054964	729.0926668561498	0.0	634.8177189738082	452.89084826970895	0.0	763.8137429357084	627.4015876499011	0.0	729.1270226042861	723.0745114990497	0.0
852	28.429552549427683	425.2374810668713	721.6999106878501	0.0	318.83607397220317	714.7180952381408	0.0	167.91744595402508	735.9296566240637	0.0	386.54579915267595	689.5651166616711	0.0			0.0			0.0			0.0	533.1099266630928	718.6230507158964	0.0	571.5061102733478	692.0199059725381	0.0	466.7896821210936	686.6431493999452	0.0	513.93505859375	710.3623046875	0.0	734.6243489583334	698.3541603088379	0.0			0.0	437.5941352293977	377.92191396738565	0.0	440.35622205229726	126.12642921481816	0.0	411.6630931822592	252.02198253992182	0.0	261.37772841618823	455.13529966735746	0.0	188.1887329085765	682.4252578366686	0.0	173.4968934390239	724.5121603542926	0.0	622.3781074558292	454.62384169124874	0.0	759.1267930066188	646.4051007007583	0.0	695.7382820656201	703.130762510444	0.0
853	28.462920568851892	411.50258983381536	719.3174398409434	0.0	305.45078726829877	713.2825672159832	0.0	119.79342179549855	714.6368141870641	0.0	386.54579915267595	689.5651166616711	0.0			0.0			0.0			0.0	525.5218030082402	718.0216592525686	0.0	565.175808138096	691.7822491658135	0.0	466.7896821210936	686.6431493999452	0.0	513.93505859375	710.3623046875	0.0	734.6243489583334	698.3541603088379	0.0			0.0	426.5724318484664	378.51060788608004	0.0	431.72136517480527	120.21089879334653	0.0	401.0454280084656	251.15379672163346	0.0	248.7968780839884	452.72574414533113	0.0	177.4970964237408	682.000288458021	0.0	158.64152462230064	716.9750648667344	0.0	614.6086376679186	455.44749552285475	0.0	751.8985321970953	675.5746574067306	0.0	653.5203665409543	665.3181473036539	0.0
854	28.496288588276105	402.8524943840004	722.6465936513432	0.0	297.06721708161143	716.5195618757815	0.0	108.61039273130693	709.1993398260561	0.0	386.54579915267595	689.5651166616711	0.0			0.0			0.0			0.0	518.2892472622256	721.959422046438	0.0	574.1926993672753	692.3167977651102	0.0	466.7896821210936	686.6431493999452	0.0	513.93505859375	710.3623046875	0.0	734.6243489583334	698.3541603088379	0.0			0.0	420.76919749184754	374.7603759693812	0.0	427.5732770408356	113.13329955108333	0.0	397.0675662717471	250.70866823232578	0.0	240.4810071829596	447.21316055811974	0.0	170.85179879375616	681.6686222734886	0.0	144.512507928698	713.8001867910009	0.0	613.0415346775029	452.7427484972351	0.0	741.7516318591635	699.7057751326577	0.0	621.1780917016466	620.1781546814174	0.0
